<svg width="980" height="274" viewBox="0 0 980 274" fill="none" xmlns="http://www.w3.org/2000/svg">
<path d="M131.436 273.137C126.801 273.137 122.27 271.755 118.416 269.165C114.562 266.575 111.558 262.894 109.784 258.588C108.01 254.281 107.546 249.542 108.45 244.971C109.355 240.399 111.587 236.199 114.864 232.903C118.142 229.607 122.318 227.362 126.864 226.453C131.41 225.543 136.122 226.01 140.404 227.794C144.687 229.578 148.347 232.599 150.922 236.475C153.497 240.35 154.872 244.907 154.872 249.569C154.872 255.819 152.403 261.814 148.007 266.234C143.612 270.654 137.651 273.137 131.436 273.137ZM131.436 241.712C129.891 241.712 128.38 242.173 127.096 243.036C125.811 243.9 124.81 245.127 124.219 246.562C123.627 247.998 123.473 249.577 123.774 251.101C124.075 252.625 124.819 254.025 125.912 255.124C127.004 256.222 128.396 256.971 129.912 257.274C131.427 257.577 132.998 257.421 134.425 256.827C135.853 256.232 137.073 255.225 137.931 253.933C138.79 252.641 139.248 251.122 139.248 249.569C139.248 247.485 138.425 245.487 136.96 244.013C135.495 242.54 133.508 241.712 131.436 241.712Z" fill="#003DA5"/>
<path d="M219.564 273.137C214.929 273.137 210.398 271.755 206.544 269.165C202.69 266.575 199.686 262.894 197.912 258.588C196.139 254.281 195.674 249.542 196.579 244.971C197.483 240.399 199.715 236.199 202.993 232.903C206.27 229.607 210.446 227.362 214.992 226.453C219.538 225.543 224.25 226.01 228.533 227.794C232.815 229.578 236.475 232.599 239.05 236.475C241.626 240.35 243 244.907 243 249.569C243 255.819 240.531 261.814 236.136 266.234C231.741 270.654 225.78 273.137 219.564 273.137ZM219.564 241.712C218.019 241.712 216.509 242.173 215.224 243.036C213.94 243.9 212.938 245.127 212.347 246.562C211.756 247.998 211.601 249.577 211.902 251.101C212.204 252.625 212.948 254.025 214.04 255.124C215.133 256.222 216.525 256.971 218.04 257.274C219.556 257.577 221.126 257.421 222.554 256.827C223.981 256.232 225.201 255.225 226.06 253.933C226.918 252.641 227.376 251.122 227.376 249.569C227.376 247.485 226.553 245.487 225.088 244.013C223.623 242.54 221.636 241.712 219.564 241.712Z" fill="#003DA5"/>
<path d="M95.0079 209.403H276L290 182C290 182 101.132 181.544 98.9052 181.557C96.6785 181.569 92.9672 180.982 92.9672 180.982C92.9672 180.982 91.5 180.5 91.0185 178.632C90.537 176.765 64.3057 26.621 64.3057 26.621C63.8607 24.4374 62.6645 22.4791 60.9254 21.087C59.1862 19.6948 57.0143 18.957 54.7875 19.0019H9.51814C6.99377 19.0019 4.57279 20.0053 2.7878 21.7914C1.0028 23.5775 0 25.9999 0 28.5258C0 31.0517 1.0028 33.4741 2.7878 35.2602C4.57279 37.0462 6.99377 38.0496 9.51814 38.0496H39.7858L66.8342 187.549C68.1314 194.02 71.6276 199.842 76.7288 204.026C81.8299 208.21 88.4119 209.4 95.0079 209.403Z" fill="#003DA5"/>
<path d="M100 174L124.171 38H161.988L182.066 137.863L236.647 38H274.659L250.682 174H222.612L238.986 82.88L187.524 174H163.743L144.249 82.88L128.07 174H100Z" fill="#003DA5"/>
<path d="M395.828 174H365.809L360.935 144.274H310.058L289.579 182.799H258L336.179 38H371.072L395.828 174ZM348.85 69.4743L322.144 120.766H357.427L348.85 69.4743Z" fill="#003DA5"/>
<path d="M529.25 78.0229C529.25 100.949 517.359 116.686 498.645 123.874L516.579 174H485.585L469.991 128.343H445.624L437.437 174H408.197L432.369 38H482.856C512.096 38 529.25 55.4857 529.25 78.0229ZM479.737 62.2857H457.125L449.913 104.057H472.914C488.899 104.057 499.62 95.12 499.62 79.9657C499.62 68.5029 492.213 62.2857 479.737 62.2857Z" fill="#003DA5"/>
<path d="M537.166 63.0629L541.454 38H649.056L644.768 63.0629H605.587L585.899 174H556.659L576.347 63.0629H537.166Z" fill="#003DA5"/>
<path d="M640.63 174L664.802 38H694.041L669.87 174H640.63Z" fill="#003DA5"/>
<path d="M692.98 174L717.151 38H806.235L801.752 63.0629H741.908L736.255 94.9257H785.182L780.894 118.823H731.966L722.22 174H692.98Z" fill="#003DA5"/>
<path d="M863.757 94.9257L905.862 38H939L874.088 123.486L864.731 174H835.686L845.043 123.486L810.54 38H842.314L863.757 94.9257Z" fill="#003DA5"/>
<path d="M677.019 211.403C675.486 211.403 674.109 211.142 672.888 210.619C671.688 210.075 670.744 209.334 670.056 208.398C669.367 207.44 669.012 206.34 668.99 205.098H672.221C672.332 206.165 672.777 207.069 673.554 207.81C674.354 208.528 675.509 208.888 677.019 208.888C678.463 208.888 679.595 208.539 680.417 207.842C681.261 207.124 681.683 206.209 681.683 205.098C681.683 204.227 681.439 203.519 680.95 202.975C680.461 202.43 679.851 202.017 679.118 201.733C678.385 201.45 677.396 201.145 676.153 200.819C674.62 200.427 673.387 200.035 672.455 199.643C671.544 199.251 670.755 198.641 670.089 197.813C669.445 196.964 669.123 195.831 669.123 194.416C669.123 193.174 669.445 192.074 670.089 191.116C670.733 190.158 671.633 189.417 672.788 188.895C673.965 188.372 675.309 188.111 676.819 188.111C678.996 188.111 680.772 188.644 682.149 189.711C683.549 190.779 684.337 192.194 684.515 193.958H681.183C681.072 193.087 680.606 192.325 679.784 191.672C678.962 190.996 677.874 190.659 676.519 190.659C675.253 190.659 674.22 190.986 673.421 191.639C672.621 192.271 672.221 193.163 672.221 194.318C672.221 195.145 672.455 195.82 672.921 196.343C673.41 196.866 673.998 197.269 674.687 197.552C675.397 197.813 676.386 198.118 677.652 198.467C679.184 198.88 680.417 199.294 681.35 199.708C682.283 200.1 683.082 200.721 683.749 201.57C684.415 202.398 684.748 203.53 684.748 204.968C684.748 206.078 684.448 207.124 683.849 208.104C683.249 209.084 682.36 209.879 681.183 210.489C680.006 211.098 678.618 211.403 677.019 211.403Z" fill="#003DA5"/>
<path d="M698.271 192.946C699.648 192.946 700.892 193.24 702.003 193.828C703.113 194.394 703.98 195.254 704.601 196.409C705.246 197.563 705.568 198.968 705.568 200.623V211.175H702.569V201.047C702.569 199.262 702.114 197.9 701.203 196.964C700.293 196.006 699.049 195.526 697.472 195.526C695.873 195.526 694.596 196.016 693.641 196.997C692.708 197.977 692.241 199.403 692.241 201.276V211.175H689.21V187H692.241V195.82C692.841 194.906 693.663 194.198 694.707 193.697C695.773 193.196 696.961 192.946 698.271 192.946Z" fill="#003DA5"/>
<path d="M718.482 211.469C716.772 211.469 715.217 211.088 713.818 210.325C712.441 209.563 711.353 208.485 710.553 207.091C709.776 205.675 709.387 204.042 709.387 202.191C709.387 200.361 709.787 198.75 710.587 197.356C711.408 195.94 712.519 194.862 713.918 194.122C715.317 193.359 716.883 192.978 718.616 192.978C720.348 192.978 721.914 193.359 723.313 194.122C724.712 194.862 725.812 195.929 726.611 197.323C727.433 198.717 727.844 200.34 727.844 202.191C727.844 204.042 727.422 205.675 726.578 207.091C725.756 208.485 724.635 209.563 723.213 210.325C721.792 211.088 720.215 211.469 718.482 211.469ZM718.482 208.855C719.571 208.855 720.592 208.605 721.547 208.104C722.502 207.603 723.269 206.852 723.846 205.85C724.446 204.848 724.746 203.628 724.746 202.191C724.746 200.753 724.457 199.534 723.88 198.532C723.302 197.53 722.547 196.79 721.614 196.31C720.681 195.81 719.671 195.559 718.582 195.559C717.472 195.559 716.45 195.81 715.517 196.31C714.607 196.79 713.874 197.53 713.318 198.532C712.763 199.534 712.486 200.753 712.486 202.191C712.486 203.65 712.752 204.881 713.285 205.882C713.84 206.884 714.573 207.636 715.484 208.136C716.395 208.616 717.394 208.855 718.482 208.855Z" fill="#003DA5"/>
<path d="M734.862 196.572C735.462 195.548 736.35 194.699 737.527 194.024C738.727 193.327 740.115 192.978 741.692 192.978C743.313 192.978 744.779 193.359 746.089 194.122C747.422 194.884 748.466 195.962 749.221 197.356C749.976 198.728 750.354 200.329 750.354 202.158C750.354 203.966 749.976 205.577 749.221 206.993C748.466 208.409 747.422 209.509 746.089 210.293C744.779 211.077 743.313 211.469 741.692 211.469C740.137 211.469 738.76 211.131 737.561 210.456C736.383 209.759 735.484 208.899 734.862 207.875V219.668H731.83V193.272H734.862V196.572ZM747.255 202.158C747.255 200.808 746.978 199.632 746.423 198.63C745.867 197.628 745.112 196.866 744.157 196.343C743.224 195.82 742.191 195.559 741.059 195.559C739.948 195.559 738.915 195.831 737.96 196.376C737.028 196.899 736.272 197.672 735.695 198.695C735.14 199.697 734.862 200.862 734.862 202.191C734.862 203.541 735.14 204.728 735.695 205.752C736.272 206.753 737.028 207.527 737.96 208.071C738.915 208.594 739.948 208.855 741.059 208.855C742.191 208.855 743.224 208.594 744.157 208.071C745.112 207.527 745.867 206.753 746.423 205.752C746.978 204.728 747.255 203.53 747.255 202.158Z" fill="#003DA5"/>
<path d="M769.69 211.469C768.291 211.469 767.036 211.24 765.925 210.783C764.815 210.303 763.937 209.65 763.293 208.822C762.649 207.973 762.294 207.004 762.227 205.915H765.359C765.448 206.808 765.87 207.538 766.625 208.104C767.402 208.67 768.413 208.953 769.656 208.953C770.811 208.953 771.722 208.703 772.388 208.202C773.055 207.701 773.388 207.069 773.388 206.307C773.388 205.523 773.032 204.946 772.322 204.576C771.611 204.184 770.512 203.802 769.023 203.432C767.669 203.084 766.558 202.735 765.692 202.387C764.848 202.017 764.115 201.483 763.493 200.786C762.893 200.067 762.594 199.131 762.594 197.977C762.594 197.062 762.871 196.223 763.426 195.461C763.982 194.699 764.77 194.1 765.792 193.664C766.813 193.207 767.98 192.978 769.29 192.978C771.311 192.978 772.944 193.479 774.187 194.481C775.431 195.483 776.097 196.855 776.186 198.597H773.155C773.088 197.661 772.699 196.909 771.989 196.343C771.3 195.777 770.367 195.494 769.19 195.494C768.102 195.494 767.235 195.722 766.591 196.18C765.947 196.637 765.625 197.236 765.625 197.977C765.625 198.565 765.814 199.055 766.192 199.447C766.591 199.817 767.08 200.122 767.658 200.361C768.257 200.579 769.079 200.83 770.123 201.113C771.433 201.461 772.499 201.81 773.321 202.158C774.143 202.485 774.843 202.986 775.42 203.661C776.02 204.336 776.331 205.218 776.353 206.307C776.353 207.287 776.075 208.169 775.52 208.953C774.965 209.737 774.176 210.358 773.155 210.815C772.155 211.251 771 211.469 769.69 211.469Z" fill="#003DA5"/>
<path d="M802.588 192.946C804.009 192.946 805.275 193.24 806.386 193.828C807.496 194.394 808.374 195.254 809.018 196.409C809.662 197.563 809.984 198.968 809.984 200.623V211.175H806.985V201.047C806.985 199.262 806.53 197.9 805.62 196.964C804.731 196.006 803.521 195.526 801.988 195.526C800.411 195.526 799.156 196.027 798.223 197.029C797.291 198.009 796.824 199.436 796.824 201.309V211.175H793.826V201.047C793.826 199.262 793.37 197.9 792.46 196.964C791.571 196.006 790.361 195.526 788.828 195.526C787.251 195.526 785.997 196.027 785.064 197.029C784.131 198.009 783.664 199.436 783.664 201.309V211.175H780.633V193.272H783.664V195.853C784.264 194.917 785.064 194.198 786.063 193.697C787.085 193.196 788.206 192.946 789.428 192.946C790.961 192.946 792.315 193.283 793.493 193.958C794.67 194.634 795.547 195.624 796.125 196.931C796.635 195.668 797.479 194.688 798.657 193.991C799.834 193.294 801.144 192.946 802.588 192.946Z" fill="#003DA5"/>
<path d="M813.824 202.158C813.824 200.329 814.202 198.728 814.957 197.356C815.712 195.962 816.745 194.884 818.055 194.122C819.388 193.359 820.865 192.978 822.486 192.978C824.086 192.978 825.474 193.316 826.651 193.991C827.828 194.666 828.705 195.516 829.283 196.539V193.272H832.348V211.175H829.283V207.842C828.683 208.888 827.784 209.759 826.584 210.456C825.407 211.131 824.03 211.469 822.453 211.469C820.832 211.469 819.366 211.077 818.055 210.293C816.745 209.509 815.712 208.409 814.957 206.993C814.202 205.577 813.824 203.966 813.824 202.158ZM829.283 202.191C829.283 200.841 829.005 199.664 828.45 198.663C827.895 197.661 827.14 196.899 826.184 196.376C825.252 195.831 824.219 195.559 823.086 195.559C821.953 195.559 820.921 195.82 819.988 196.343C819.055 196.866 818.311 197.628 817.756 198.63C817.2 199.632 816.923 200.808 816.923 202.158C816.923 203.53 817.2 204.728 817.756 205.752C818.311 206.753 819.055 207.527 819.988 208.071C820.921 208.594 821.953 208.855 823.086 208.855C824.219 208.855 825.252 208.594 826.184 208.071C827.14 207.527 827.895 206.753 828.45 205.752C829.005 204.728 829.283 203.541 829.283 202.191Z" fill="#003DA5"/>
<path d="M840.503 196.18C841.036 195.156 841.791 194.361 842.768 193.795C843.768 193.229 844.978 192.946 846.4 192.946V196.016H845.6C842.202 196.016 840.503 197.824 840.503 201.439V211.175H837.471V193.272H840.503V196.18Z" fill="#003DA5"/>
<path d="M853.598 195.722V206.274C853.598 207.146 853.786 207.766 854.164 208.136C854.542 208.485 855.197 208.659 856.13 208.659H858.362V211.175H855.63C853.942 211.175 852.676 210.793 851.832 210.031C850.988 209.269 850.566 208.017 850.566 206.274V195.722H848.2V193.272H850.566V188.764H853.598V193.272H858.362V195.722H853.598Z" fill="#003DA5"/>
<path d="M863.001 211.371C862.424 211.371 861.935 211.175 861.535 210.783C861.136 210.391 860.936 209.911 860.936 209.345C860.936 208.779 861.136 208.3 861.535 207.908C861.935 207.516 862.424 207.32 863.001 207.32C863.557 207.32 864.023 207.516 864.4 207.908C864.8 208.3 865 208.779 865 209.345C865 209.911 864.8 210.391 864.4 210.783C864.023 211.175 863.557 211.371 863.001 211.371Z" fill="#003DA5"/>
<path d="M501.899 195.528C501.899 197.373 501.259 198.911 499.98 200.142C498.723 201.351 496.794 201.955 494.194 201.955H489.909V211.215H487V189.036H494.194C496.709 189.036 498.616 189.641 499.916 190.85C501.238 192.059 501.899 193.619 501.899 195.528ZM494.194 199.569C495.813 199.569 497.007 199.219 497.774 198.519C498.542 197.819 498.925 196.822 498.925 195.528C498.925 192.791 497.348 191.423 494.194 191.423H489.909V199.569H494.194Z" fill="#003DA5"/>
<path d="M507.017 190.946C506.463 190.946 505.994 190.755 505.611 190.373C505.227 189.991 505.035 189.524 505.035 188.973C505.035 188.421 505.227 187.955 505.611 187.573C505.994 187.191 506.463 187 507.017 187C507.55 187 507.998 187.191 508.36 187.573C508.744 187.955 508.936 188.421 508.936 188.973C508.936 189.524 508.744 189.991 508.36 190.373C507.998 190.755 507.55 190.946 507.017 190.946ZM508.424 193.778V211.215H505.515V193.778H508.424Z" fill="#003DA5"/>
<path d="M512.295 202.464C512.295 200.661 512.658 199.092 513.383 197.755C514.107 196.397 515.109 195.347 516.388 194.605C517.688 193.862 519.169 193.491 520.832 193.491C522.985 193.491 524.754 194.011 526.139 195.05C527.546 196.09 528.473 197.532 528.921 199.378H525.787C525.489 198.317 524.903 197.479 524.029 196.864C523.176 196.249 522.111 195.941 520.832 195.941C519.169 195.941 517.827 196.514 516.803 197.66C515.78 198.784 515.269 200.386 515.269 202.464C515.269 204.565 515.78 206.187 516.803 207.333C517.827 208.478 519.169 209.051 520.832 209.051C522.111 209.051 523.176 208.754 524.029 208.16C524.882 207.566 525.468 206.718 525.787 205.615H528.921C528.452 207.397 527.514 208.828 526.107 209.91C524.7 210.971 522.942 211.501 520.832 211.501C519.169 211.501 517.688 211.13 516.388 210.388C515.109 209.645 514.107 208.595 513.383 207.237C512.658 205.88 512.295 204.289 512.295 202.464Z" fill="#003DA5"/>
<path d="M542.586 211.215L535.712 203.515V211.215H532.803V187.668H535.712V201.51L542.458 193.778H546.518L538.27 202.464L546.55 211.215H542.586Z" fill="#003DA5"/>
<path d="M563.982 211.501C562.64 211.501 561.435 211.279 560.37 210.833C559.304 210.366 558.462 209.73 557.844 208.924C557.226 208.097 556.885 207.153 556.821 206.092H559.826C559.911 206.962 560.316 207.672 561.041 208.224C561.787 208.775 562.757 209.051 563.951 209.051C565.059 209.051 565.933 208.807 566.572 208.319C567.212 207.831 567.531 207.216 567.531 206.474C567.531 205.71 567.19 205.148 566.508 204.787C565.826 204.405 564.771 204.034 563.343 203.674C562.043 203.334 560.977 202.995 560.146 202.655C559.336 202.295 558.633 201.775 558.036 201.096C557.46 200.396 557.173 199.484 557.173 198.36C557.173 197.469 557.439 196.652 557.972 195.91C558.505 195.167 559.261 194.584 560.242 194.159C561.222 193.714 562.341 193.491 563.599 193.491C565.538 193.491 567.105 193.979 568.299 194.955C569.492 195.931 570.132 197.267 570.217 198.964H567.308C567.244 198.052 566.871 197.32 566.189 196.769C565.528 196.217 564.633 195.941 563.503 195.941C562.459 195.941 561.627 196.164 561.009 196.61C560.391 197.055 560.082 197.638 560.082 198.36C560.082 198.932 560.263 199.41 560.626 199.792C561.009 200.152 561.478 200.449 562.032 200.683C562.608 200.895 563.396 201.139 564.398 201.414C565.656 201.754 566.679 202.093 567.467 202.433C568.256 202.751 568.927 203.239 569.482 203.896C570.057 204.554 570.355 205.413 570.377 206.474C570.377 207.428 570.11 208.287 569.577 209.051C569.045 209.815 568.288 210.419 567.308 210.865C566.348 211.289 565.24 211.501 563.982 211.501Z" fill="#003DA5"/>
<path d="M595.553 193.459C596.917 193.459 598.132 193.746 599.198 194.319C600.263 194.87 601.105 195.708 601.723 196.832C602.341 197.957 602.65 199.325 602.65 200.937V211.215H599.773V201.351C599.773 199.611 599.336 198.285 598.462 197.373C597.61 196.44 596.448 195.973 594.977 195.973C593.464 195.973 592.26 196.461 591.365 197.437C590.469 198.392 590.022 199.781 590.022 201.605V211.215H587.144V201.351C587.144 199.611 586.707 198.285 585.834 197.373C584.981 196.44 583.819 195.973 582.349 195.973C580.835 195.973 579.631 196.461 578.736 197.437C577.841 198.392 577.393 199.781 577.393 201.605V211.215H574.484V193.778H577.393V196.291C577.969 195.379 578.736 194.679 579.695 194.191C580.676 193.703 581.752 193.459 582.924 193.459C584.395 193.459 585.695 193.788 586.825 194.446C587.954 195.103 588.796 196.069 589.35 197.341C589.841 196.111 590.651 195.156 591.78 194.478C592.91 193.799 594.167 193.459 595.553 193.459Z" fill="#003DA5"/>
<path d="M606.336 202.433C606.336 200.651 606.698 199.092 607.423 197.755C608.148 196.397 609.139 195.347 610.396 194.605C611.675 193.862 613.092 193.491 614.648 193.491C616.183 193.491 617.515 193.82 618.645 194.478C619.774 195.135 620.616 195.963 621.171 196.96V193.778H624.112V211.215H621.171V207.969C620.595 208.988 619.732 209.836 618.581 210.515C617.451 211.173 616.13 211.501 614.616 211.501C613.061 211.501 611.654 211.119 610.396 210.356C609.139 209.592 608.148 208.521 607.423 207.142C606.698 205.763 606.336 204.193 606.336 202.433ZM621.171 202.464C621.171 201.149 620.904 200.004 620.371 199.028C619.838 198.052 619.114 197.31 618.197 196.801C617.302 196.27 616.311 196.005 615.224 196.005C614.137 196.005 613.146 196.26 612.251 196.769C611.355 197.278 610.641 198.02 610.109 198.996C609.576 199.972 609.309 201.117 609.309 202.433C609.309 203.769 609.576 204.936 610.109 205.933C610.641 206.909 611.355 207.662 612.251 208.192C613.146 208.701 614.137 208.956 615.224 208.956C616.311 208.956 617.302 208.701 618.197 208.192C619.114 207.662 619.838 206.909 620.371 205.933C620.904 204.936 621.171 203.78 621.171 202.464Z" fill="#003DA5"/>
<path d="M631.938 196.61C632.449 195.613 633.174 194.838 634.112 194.287C635.071 193.735 636.233 193.459 637.597 193.459V196.451H636.829C633.568 196.451 631.938 198.211 631.938 201.733V211.215H629.028V193.778H631.938V196.61Z" fill="#003DA5"/>
<path d="M644.504 196.164V206.442C644.504 207.29 644.685 207.895 645.048 208.256C645.41 208.595 646.039 208.765 646.934 208.765H649.076V211.215H646.454C644.834 211.215 643.62 210.844 642.81 210.101C642 209.359 641.595 208.139 641.595 206.442V196.164H639.325V193.778H641.595V189.386H644.504V193.778H649.076V196.164H644.504Z" fill="#003DA5"/>
<path d="M653.528 211.406C652.974 211.406 652.505 211.215 652.121 210.833C651.738 210.451 651.546 209.985 651.546 209.433C651.546 208.881 651.738 208.415 652.121 208.033C652.505 207.651 652.974 207.46 653.528 207.46C654.061 207.46 654.509 207.651 654.871 208.033C655.255 208.415 655.446 208.881 655.446 209.433C655.446 209.985 655.255 210.451 654.871 210.833C654.509 211.215 654.061 211.406 653.528 211.406Z" fill="#003DA5"/>
<path fill-rule="evenodd" clip-rule="evenodd" d="M960.5 4.96391C952.198 4.96391 945.469 11.7558 945.469 20.1339C945.469 28.512 952.198 35.3039 960.5 35.3039C968.801 35.3039 975.531 28.512 975.531 20.1339C975.531 11.7558 968.801 4.96391 960.5 4.96391ZM943.031 20.1339C943.031 10.3971 950.852 2.50391 960.5 2.50391C970.148 2.50391 977.969 10.3971 977.969 20.1339C977.969 29.8708 970.148 37.7639 960.5 37.7639C950.852 37.7639 943.031 29.8708 943.031 20.1339ZM963.901 15.528C963.915 15.5394 963.929 15.5506 963.942 15.5615C963.964 15.5792 963.986 15.5977 964.006 15.6168L966.188 17.6424L968.369 15.6168C968.389 15.5977 968.411 15.5792 968.433 15.5615C968.446 15.5506 968.46 15.5394 968.474 15.528C968.664 15.3741 968.9 15.1836 969.117 15.0554C969.336 14.9258 969.925 14.6231 970.594 14.9475C971.263 15.272 971.396 15.9252 971.433 16.1789C971.469 16.43 971.469 16.7345 971.469 16.9807V17.0341V25.8739C971.469 26.5532 970.923 27.1039 970.25 27.1039C969.577 27.1039 969.031 26.5532 969.031 25.8739V18.3445L967.013 20.219C966.546 20.6521 965.829 20.6521 965.362 20.219L963.344 18.3445V25.8739C963.344 26.5532 962.798 27.1039 962.125 27.1039C961.452 27.1039 960.906 26.5532 960.906 25.8739V17.0341C960.906 17.0168 960.906 16.9989 960.906 16.9807C960.906 16.7345 960.906 16.43 960.942 16.1789C960.979 15.9252 961.112 15.272 961.781 14.9475C962.45 14.6231 963.039 14.9258 963.258 15.0554C963.475 15.1836 963.711 15.3741 963.901 15.528ZM949.531 16.0339C949.531 15.3546 950.077 14.8039 950.75 14.8039H958.875C959.548 14.8039 960.094 15.3546 960.094 16.0339C960.094 16.7132 959.548 17.2639 958.875 17.2639H956.031V25.8739C956.031 26.5532 955.486 27.1039 954.812 27.1039C954.139 27.1039 953.594 26.5532 953.594 25.8739V17.2639H950.75C950.077 17.2639 949.531 16.7132 949.531 16.0339Z" fill="#003DA5"/>
</svg>
